<svg width="105" height="97" viewBox="0 0 105 97" fill="none" xmlns="http://www.w3.org/2000/svg">
<path d="M39.8855 0C19.9582 0 3.85165 16.153 3.85165 36.0338V36.5443C5.86255 36.5133 7.28179 36.2581 8.46126 35.883C9.56339 35.5311 10.507 35.0632 11.6323 34.4676C12.0317 27.2452 15.1819 20.45 20.4358 15.478C25.6896 10.5061 32.6481 7.73507 39.8816 7.73424H65.1107C80.1963 7.73424 92.5556 19.5831 93.4025 34.4792C94.5162 35.0709 95.4521 35.535 96.5426 35.883C97.7259 36.262 99.1529 36.5172 101.183 36.5443V36.0261C101.144 16.1491 85.0031 0 65.1145 0H39.8855ZM94.7637 50.493C93.8693 50.2908 92.9842 50.0495 92.1109 49.7698C89.837 49.0428 87.7024 47.9716 85.7147 46.9739C85.1331 46.6792 84.5491 46.3891 83.9629 46.1038C82.2111 45.2608 80.3935 44.6613 77.0523 44.6613C74.5464 44.6613 72.3886 45.1795 70.1921 46.1347C69.4021 46.4928 68.6256 46.8798 67.8641 47.2949L67.8138 47.3181C66.994 47.7512 66.0852 48.2307 65.0836 48.6832C63.0121 49.6333 60.8294 50.3193 58.5868 50.725H94.7637V50.493ZM8.24083 58.0068L36.0145 64.2328C46.8308 66.6614 58.088 66.6614 68.9082 64.2328L96.6818 58.0068H97.6293C101.392 58.0068 104.687 61.3402 104.687 65.741C104.687 70.1418 101.392 73.4752 97.6293 73.4752H7.33206C3.56935 73.4752 0.274567 70.1418 0.274567 65.741C0.274567 61.3402 3.56935 58.0068 7.33206 58.0068H8.24083ZM46.4557 50.725H10.1937V50.5896C14.115 49.7776 16.8374 48.3351 19.1693 47.086L19.2466 47.0474C20.6311 46.3049 21.7023 45.7364 22.9823 45.3265C24.2352 44.9282 25.7666 44.6613 27.9863 44.6613C30.2099 44.6613 31.7336 44.9282 32.9827 45.3265C34.2588 45.7325 35.3223 46.2971 36.7028 47.0396L36.7879 47.0822C39.2551 48.4086 42.1555 49.9438 46.4557 50.725Z" fill="white"/>
<path d="M64.8825 14.5868C64.8825 15.3786 64.568 16.1379 64.0081 16.6978C63.4482 17.2577 62.6889 17.5722 61.8971 17.5722C61.1053 17.5722 60.346 17.2577 59.7861 16.6978C59.2262 16.1379 58.9117 15.3786 58.9117 14.5868C58.9117 13.795 59.2262 13.0356 59.7861 12.4758C60.346 11.9159 61.1053 11.6014 61.8971 11.6014C62.6889 11.6014 63.4482 11.9159 64.0081 12.4758C64.568 13.0356 64.8825 13.795 64.8825 14.5868ZM43.0642 17.5683C43.4651 17.5828 43.8647 17.5163 44.2393 17.3728C44.6138 17.2294 44.9557 17.012 45.2443 16.7335C45.533 16.455 45.7626 16.1212 45.9194 15.7521C46.0763 15.3829 46.1571 14.9859 46.1571 14.5848C46.1571 14.1837 46.0763 13.7868 45.9194 13.4176C45.7626 13.0484 45.533 12.7147 45.2443 12.4362C44.9557 12.1577 44.6138 11.9403 44.2393 11.7968C43.8647 11.6534 43.4651 11.5869 43.0642 11.6014C42.2915 11.6292 41.5598 11.9557 41.023 12.5122C40.4862 13.0686 40.1862 13.8117 40.1862 14.5848C40.1862 15.358 40.4862 16.101 41.023 16.6575C41.5598 17.214 42.2915 17.5405 43.0642 17.5683ZM75.2696 22.9552C75.2696 23.747 74.9551 24.5064 74.3952 25.0662C73.8353 25.6261 73.076 25.9406 72.2842 25.9406C71.4924 25.9406 70.733 25.6261 70.1732 25.0662C69.6133 24.5064 69.2988 23.747 69.2988 22.9552C69.2988 22.1634 69.6133 21.4041 70.1732 20.8442C70.733 20.2843 71.4924 19.9698 72.2842 19.9698C73.076 19.9698 73.8353 20.2843 74.3952 20.8442C74.9551 21.4041 75.2696 22.1634 75.2696 22.9552ZM32.6771 25.9406C33.078 25.9551 33.4776 25.8886 33.8522 25.7451C34.2268 25.6017 34.5686 25.3843 34.8573 25.1058C35.1459 24.8273 35.3755 24.4936 35.5324 24.1244C35.6892 23.7552 35.77 23.3582 35.77 22.9572C35.77 22.5561 35.6892 22.1591 35.5324 21.7899C35.3755 21.4207 35.1459 21.087 34.8573 20.8085C34.5686 20.53 34.2268 20.3126 33.8522 20.1692C33.4776 20.0257 33.078 19.9592 32.6771 19.9737C31.9045 20.0015 31.1727 20.328 30.6359 20.8845C30.0991 21.4409 29.7992 22.184 29.7992 22.9572C29.7992 23.7303 30.0991 24.4734 30.6359 25.0298C31.1727 25.5863 31.9045 25.9128 32.6771 25.9406ZM52.4807 29.3514C53.2724 29.3514 54.0318 29.0369 54.5917 28.477C55.1515 27.9172 55.4661 27.1578 55.4661 26.366C55.4661 25.5742 55.1515 24.8149 54.5917 24.255C54.0318 23.6951 53.2724 23.3806 52.4807 23.3806C51.6889 23.3806 50.9295 23.6951 50.3697 24.255C49.8098 24.8149 49.4952 25.5742 49.4952 26.366C49.4952 27.1578 49.8098 27.9172 50.3697 28.477C50.9295 29.0369 51.6889 29.3514 52.4807 29.3514ZM4.39305 81.8901V76.917C5.32502 77.1915 6.30727 77.3385 7.33206 77.3385H12.1273V81.8862C12.1273 86.1285 15.1823 88.9399 18.2219 88.9399H86.6621C89.7055 88.9399 92.7992 86.1169 92.8302 81.8282V77.3424H97.6254C98.6502 77.3424 99.6363 77.1954 100.564 76.9209V81.8708C100.514 89.7287 94.6206 96.678 86.666 96.678H18.218C10.2517 96.678 4.38918 89.7171 4.38918 81.8901H4.39305ZM27.9863 33.8373C21.0294 33.8373 17.3634 35.7863 14.0995 37.5343L13.9642 37.6039C12.6339 38.3154 11.2804 39.0424 9.63686 39.5645C7.94306 40.1059 6.0095 40.4153 3.4572 40.4153C1.55458 40.4153 0 41.9621 0 43.8957C0 45.8215 1.55458 47.3722 3.4572 47.3722C10.4142 47.3722 14.0802 45.4232 17.344 43.6752L17.4794 43.6056C18.8097 42.8941 20.1632 42.1671 21.8105 41.645C23.5005 41.1036 25.434 40.7942 27.9863 40.7942C30.5386 40.7942 32.4645 41.1036 34.1583 41.645C35.7979 42.1632 37.1475 42.8902 38.474 43.6018L38.6132 43.6752C41.877 45.4232 45.5431 47.3722 52.5193 47.3722C57.5698 47.3722 60.8723 46.3474 63.4865 45.1602C64.3837 44.7542 65.2073 44.321 66.0465 43.8802L66.0658 43.8686C66.8934 43.4355 67.7596 42.9792 68.6491 42.5924C71.2901 41.4054 74.153 40.7925 77.0485 40.7942C80.9968 40.7942 83.3905 41.5329 85.6451 42.6234C86.3373 42.956 86.9986 43.2885 87.6444 43.6134C89.5663 44.5801 91.3297 45.4618 93.2904 46.0883C95.9571 46.9451 98.7418 47.3783 101.543 47.3722C103.445 47.3722 105 45.8254 105 43.8918C105 41.966 103.445 40.4114 101.543 40.4114C98.9905 40.4114 97.0647 40.1059 95.3709 39.5684C93.7312 39.0424 92.3816 38.3193 91.059 37.6077L90.9237 37.5343C89.1642 36.5907 87.3775 35.6394 85.065 34.9317C82.9729 34.2936 80.4051 33.8373 77.0523 33.8373C73.6957 33.8373 71.1279 34.2936 69.0358 34.9317C67.1796 35.5002 65.5167 36.289 63.7301 37.1359C63.007 37.4762 62.2645 37.832 61.4833 38.1801C58.8537 39.3557 55.9533 40.4153 52.5193 40.4153C49.9554 40.4153 48.018 40.1059 46.3203 39.5645C44.673 39.0386 43.3195 38.3154 41.993 37.6039L41.8654 37.5343C38.6054 35.7863 34.9433 33.8373 27.9863 33.8373ZM10.6848 54.5921H94.2378L68.0613 60.4585C57.7874 62.7602 47.1314 62.7602 36.8575 60.4585L10.6848 54.5921Z" fill="white"/>
</svg>
