<svg width="699" height="98" viewBox="0 0 699 98" fill="none" xmlns="http://www.w3.org/2000/svg">
<path d="M39.8855 0C19.9582 0 3.85165 16.153 3.85165 36.0338V36.5443C5.86255 36.5133 7.28179 36.2581 8.46126 35.883C9.56339 35.5311 10.507 35.0632 11.6323 34.4676C12.0317 27.2452 15.1819 20.45 20.4358 15.478C25.6896 10.5061 32.6481 7.73507 39.8816 7.73424H65.1107C80.1963 7.73424 92.5556 19.5831 93.4025 34.4792C94.5162 35.0709 95.4521 35.535 96.5426 35.883C97.7259 36.262 99.1529 36.5172 101.183 36.5443V36.0261C101.144 16.1491 85.0031 0 65.1145 0H39.8855ZM94.7637 50.493C93.8693 50.2908 92.9842 50.0495 92.1109 49.7698C89.837 49.0428 87.7024 47.9716 85.7147 46.9739C85.1331 46.6792 84.5491 46.3891 83.9629 46.1038C82.2111 45.2608 80.3935 44.6613 77.0523 44.6613C74.5464 44.6613 72.3886 45.1795 70.1921 46.1347C69.4021 46.4928 68.6256 46.8798 67.8641 47.2949L67.8138 47.3181C66.994 47.7512 66.0852 48.2307 65.0836 48.6832C63.0121 49.6333 60.8294 50.3193 58.5868 50.725H94.7637V50.493ZM8.24083 58.0068L36.0145 64.2328C46.8308 66.6614 58.088 66.6614 68.9082 64.2328L96.6818 58.0068H97.6293C101.392 58.0068 104.687 61.3402 104.687 65.741C104.687 70.1418 101.392 73.4752 97.6293 73.4752H7.33206C3.56935 73.4752 0.274567 70.1418 0.274567 65.741C0.274567 61.3402 3.56935 58.0068 7.33206 58.0068H8.24083ZM46.4557 50.725H10.1937V50.5896C14.115 49.7776 16.8374 48.3351 19.1693 47.086L19.2466 47.0474C20.6311 46.3049 21.7023 45.7364 22.9823 45.3265C24.2352 44.9282 25.7666 44.6613 27.9863 44.6613C30.2099 44.6613 31.7336 44.9282 32.9827 45.3265C34.2588 45.7325 35.3223 46.2971 36.7028 47.0396L36.7879 47.0822C39.2551 48.4086 42.1555 49.9438 46.4557 50.725Z" fill="#FF7629"/>
<path d="M64.8825 14.5868C64.8825 15.3786 64.568 16.1379 64.0081 16.6978C63.4482 17.2577 62.6889 17.5722 61.8971 17.5722C61.1053 17.5722 60.346 17.2577 59.7861 16.6978C59.2262 16.1379 58.9117 15.3786 58.9117 14.5868C58.9117 13.795 59.2262 13.0356 59.7861 12.4758C60.346 11.9159 61.1053 11.6014 61.8971 11.6014C62.6889 11.6014 63.4482 11.9159 64.0081 12.4758C64.568 13.0356 64.8825 13.795 64.8825 14.5868ZM43.0642 17.5683C43.4651 17.5828 43.8647 17.5163 44.2393 17.3728C44.6138 17.2294 44.9557 17.012 45.2443 16.7335C45.533 16.455 45.7626 16.1212 45.9194 15.7521C46.0763 15.3829 46.1571 14.9859 46.1571 14.5848C46.1571 14.1837 46.0763 13.7868 45.9194 13.4176C45.7626 13.0484 45.533 12.7147 45.2443 12.4362C44.9557 12.1577 44.6138 11.9403 44.2393 11.7968C43.8647 11.6534 43.4651 11.5869 43.0642 11.6014C42.2915 11.6292 41.5598 11.9557 41.023 12.5122C40.4862 13.0686 40.1862 13.8117 40.1862 14.5848C40.1862 15.358 40.4862 16.101 41.023 16.6575C41.5598 17.214 42.2915 17.5405 43.0642 17.5683ZM75.2696 22.9552C75.2696 23.747 74.9551 24.5064 74.3952 25.0662C73.8353 25.6261 73.076 25.9406 72.2842 25.9406C71.4924 25.9406 70.733 25.6261 70.1732 25.0662C69.6133 24.5064 69.2988 23.747 69.2988 22.9552C69.2988 22.1634 69.6133 21.4041 70.1732 20.8442C70.733 20.2843 71.4924 19.9698 72.2842 19.9698C73.076 19.9698 73.8353 20.2843 74.3952 20.8442C74.9551 21.4041 75.2696 22.1634 75.2696 22.9552ZM32.6771 25.9406C33.078 25.9551 33.4776 25.8886 33.8522 25.7451C34.2268 25.6017 34.5686 25.3843 34.8573 25.1058C35.1459 24.8273 35.3755 24.4936 35.5324 24.1244C35.6892 23.7552 35.77 23.3582 35.77 22.9572C35.77 22.5561 35.6892 22.1591 35.5324 21.7899C35.3755 21.4207 35.1459 21.087 34.8573 20.8085C34.5686 20.53 34.2268 20.3126 33.8522 20.1692C33.4776 20.0257 33.078 19.9592 32.6771 19.9737C31.9045 20.0015 31.1727 20.328 30.6359 20.8845C30.0991 21.4409 29.7992 22.184 29.7992 22.9572C29.7992 23.7303 30.0991 24.4734 30.6359 25.0298C31.1727 25.5863 31.9045 25.9128 32.6771 25.9406ZM52.4807 29.3514C53.2724 29.3514 54.0318 29.0369 54.5917 28.477C55.1515 27.9172 55.4661 27.1578 55.4661 26.366C55.4661 25.5742 55.1515 24.8149 54.5917 24.255C54.0318 23.6951 53.2724 23.3806 52.4807 23.3806C51.6889 23.3806 50.9295 23.6951 50.3697 24.255C49.8098 24.8149 49.4952 25.5742 49.4952 26.366C49.4952 27.1578 49.8098 27.9172 50.3697 28.477C50.9295 29.0369 51.6889 29.3514 52.4807 29.3514ZM4.39305 81.8901V76.917C5.32502 77.1915 6.30727 77.3385 7.33206 77.3385H12.1273V81.8862C12.1273 86.1285 15.1823 88.9399 18.2219 88.9399H86.6621C89.7055 88.9399 92.7992 86.1169 92.8302 81.8282V77.3424H97.6254C98.6502 77.3424 99.6363 77.1954 100.564 76.9209V81.8708C100.514 89.7287 94.6206 96.678 86.666 96.678H18.218C10.2517 96.678 4.38918 89.7171 4.38918 81.8901H4.39305ZM27.9863 33.8373C21.0294 33.8373 17.3634 35.7863 14.0995 37.5343L13.9642 37.6039C12.6339 38.3154 11.2804 39.0424 9.63686 39.5645C7.94306 40.1059 6.0095 40.4153 3.4572 40.4153C1.55458 40.4153 0 41.9621 0 43.8957C0 45.8215 1.55458 47.3722 3.4572 47.3722C10.4142 47.3722 14.0802 45.4232 17.344 43.6752L17.4794 43.6056C18.8097 42.8941 20.1632 42.1671 21.8105 41.645C23.5005 41.1036 25.434 40.7942 27.9863 40.7942C30.5386 40.7942 32.4645 41.1036 34.1583 41.645C35.7979 42.1632 37.1475 42.8902 38.474 43.6018L38.6132 43.6752C41.877 45.4232 45.5431 47.3722 52.5193 47.3722C57.5698 47.3722 60.8723 46.3474 63.4865 45.1602C64.3837 44.7542 65.2073 44.321 66.0465 43.8802L66.0658 43.8686C66.8934 43.4355 67.7596 42.9792 68.6491 42.5924C71.2901 41.4054 74.153 40.7925 77.0485 40.7942C80.9968 40.7942 83.3905 41.5329 85.6451 42.6234C86.3373 42.956 86.9986 43.2885 87.6444 43.6134C89.5663 44.5801 91.3297 45.4618 93.2904 46.0883C95.9571 46.9451 98.7418 47.3783 101.543 47.3722C103.445 47.3722 105 45.8254 105 43.8918C105 41.966 103.445 40.4114 101.543 40.4114C98.9905 40.4114 97.0647 40.1059 95.3709 39.5684C93.7312 39.0424 92.3816 38.3193 91.059 37.6077L90.9237 37.5343C89.1642 36.5907 87.3775 35.6394 85.065 34.9317C82.9729 34.2936 80.4051 33.8373 77.0523 33.8373C73.6957 33.8373 71.1279 34.2936 69.0358 34.9317C67.1796 35.5002 65.5167 36.289 63.7301 37.1359C63.007 37.4762 62.2645 37.832 61.4833 38.1801C58.8537 39.3557 55.9533 40.4153 52.5193 40.4153C49.9554 40.4153 48.018 40.1059 46.3203 39.5645C44.673 39.0386 43.3195 38.3154 41.993 37.6039L41.8654 37.5343C38.6054 35.7863 34.9433 33.8373 27.9863 33.8373ZM10.6848 54.5921H94.2378L68.0613 60.4585C57.7874 62.7602 47.1314 62.7602 36.8575 60.4585L10.6848 54.5921Z" fill="#FF7629"/>
<path d="M697.458 45.168L689.463 46.5841C689.129 45.5614 688.598 44.5878 687.87 43.6635C687.162 42.7391 686.198 41.9819 684.979 41.3918C683.76 40.8018 682.235 40.5068 680.406 40.5068C677.908 40.5068 675.824 41.0673 674.152 42.1884C672.48 43.2898 671.644 44.7157 671.644 46.4661C671.644 47.9805 672.205 49.2 673.326 50.1243C674.447 51.0487 676.256 51.8059 678.754 52.396L685.953 54.0481C690.122 55.0118 693.23 56.4967 695.275 58.5028C697.321 60.509 698.343 63.1149 698.343 66.3208C698.343 69.035 697.557 71.4541 695.983 73.5782C694.429 75.6827 692.256 77.3348 689.463 78.5345C686.69 79.7343 683.474 80.3341 679.816 80.3341C674.742 80.3341 670.602 79.2524 667.396 77.0889C664.19 74.9058 662.223 71.8081 661.496 67.7959L670.022 66.4978C670.553 68.7203 671.644 70.4019 673.296 71.5426C674.948 72.6637 677.102 73.2242 679.757 73.2242C682.648 73.2242 684.959 72.6243 686.69 71.4246C688.421 70.2052 689.286 68.7203 689.286 66.9698C689.286 65.5538 688.755 64.3639 687.693 63.4001C686.651 62.4364 685.048 61.7087 682.884 61.217L675.214 59.5354C670.985 58.5717 667.858 57.0376 665.832 54.9331C663.826 52.8287 662.823 50.1637 662.823 46.9382C662.823 44.2633 663.571 41.9229 665.065 39.9167C666.56 37.9106 668.625 36.347 671.261 35.226C673.896 34.0852 676.915 33.5149 680.318 33.5149C685.215 33.5149 689.07 34.5769 691.882 36.701C694.695 38.8055 696.553 41.6278 697.458 45.168Z" fill="black"/>
<path d="M631.618 79.4196V34.1049H640.144V41.3033H640.616C641.442 38.8645 642.897 36.9469 644.982 35.5505C647.086 34.1344 649.466 33.4264 652.121 33.4264C652.672 33.4264 653.321 33.446 654.069 33.4854C654.836 33.5247 655.435 33.5739 655.868 33.6329V42.0704C655.514 41.972 654.885 41.8639 653.98 41.7459C653.075 41.6082 652.171 41.5393 651.266 41.5393C649.181 41.5393 647.322 41.9819 645.69 42.8669C644.077 43.7323 642.799 44.9419 641.855 46.4956C640.911 48.0297 640.439 49.7802 640.439 51.7469V79.4196H631.618Z" fill="black"/>
<path d="M602.389 80.3341C597.924 80.3341 594.079 79.3802 590.854 77.4725C587.648 75.545 585.17 72.8407 583.419 69.3595C581.688 65.8586 580.823 61.7579 580.823 57.0573C580.823 52.4156 581.688 48.3247 583.419 44.7845C585.17 41.2443 587.608 38.481 590.736 36.4945C593.882 34.5081 597.56 33.5149 601.769 33.5149C604.326 33.5149 606.804 33.9377 609.204 34.7834C611.603 35.6292 613.757 36.9567 615.665 38.7662C617.572 40.5756 619.077 42.9259 620.178 45.8171C621.28 48.6886 621.83 52.1796 621.83 56.2902V59.4174H585.809V52.809H613.186C613.186 50.4882 612.714 48.4329 611.77 46.6431C610.826 44.8337 609.499 43.4078 607.788 42.3654C606.096 41.323 604.11 40.8018 601.828 40.8018C599.35 40.8018 597.187 41.4115 595.338 42.6309C593.509 43.8306 592.093 45.4041 591.09 47.3512C590.106 49.2786 589.615 51.3732 589.615 53.6351V58.7979C589.615 61.8267 590.146 64.4032 591.208 66.5273C592.289 68.6514 593.794 70.274 595.721 71.3951C597.649 72.4965 599.901 73.0472 602.477 73.0472C604.149 73.0472 605.673 72.8112 607.05 72.3392C608.427 71.8475 609.617 71.1198 610.62 70.156C611.623 69.1923 612.39 68.0024 612.921 66.5863L621.27 68.0909C620.601 70.5494 619.401 72.703 617.671 74.5518C615.96 76.3809 613.806 77.8068 611.21 78.8295C608.633 79.8326 605.693 80.3341 602.389 80.3341Z" fill="black"/>
<path d="M550.584 97.3566C546.985 97.3566 543.887 96.8846 541.291 95.9406C538.714 94.9965 536.61 93.7476 534.977 92.1938C533.345 90.6401 532.126 88.9388 531.319 87.09L538.901 83.9628C539.432 84.8282 540.14 85.7428 541.025 86.7065C541.93 87.6899 543.149 88.5258 544.683 89.2142C546.237 89.9025 548.233 90.2467 550.672 90.2467C554.016 90.2467 556.779 89.4305 558.962 87.7981C561.145 86.1853 562.237 83.6088 562.237 80.0686V71.1591H561.676C561.145 72.1228 560.378 73.1947 559.375 74.3748C558.392 75.5548 557.035 76.5776 555.304 77.443C553.573 78.3083 551.321 78.741 548.548 78.741C544.969 78.741 541.743 77.9052 538.872 76.2334C536.02 74.542 533.758 72.054 532.086 68.7694C530.434 65.4653 529.608 61.4038 529.608 56.5852C529.608 51.7666 530.424 47.6364 532.057 44.1945C533.709 40.7526 535.971 38.1171 538.842 36.288C541.714 34.4392 544.969 33.5149 548.607 33.5149C551.42 33.5149 553.691 33.9869 555.422 34.9309C557.153 35.8553 558.5 36.9371 559.464 38.1761C560.447 39.4152 561.204 40.5068 561.735 41.4508H562.384V34.1049H571.028V80.4226C571.028 84.3169 570.124 87.5129 568.314 90.0107C566.505 92.5085 564.056 94.3573 560.968 95.557C557.9 96.7568 554.439 97.3566 550.584 97.3566ZM550.495 71.4246C553.032 71.4246 555.176 70.8346 556.927 69.6545C558.697 68.4548 560.034 66.7437 560.939 64.5212C561.863 62.2791 562.325 59.5944 562.325 56.4672C562.325 53.4187 561.873 50.734 560.968 48.4132C560.064 46.0924 558.736 44.283 556.986 42.9849C555.235 41.6672 553.072 41.0083 550.495 41.0083C547.84 41.0083 545.627 41.6967 543.857 43.0734C542.087 44.4305 540.75 46.2793 539.845 48.6198C538.96 50.9602 538.518 53.576 538.518 56.4672C538.518 59.4371 538.97 62.043 539.875 64.2852C540.779 66.5273 542.117 68.2778 543.887 69.5365C545.677 70.7952 547.879 71.4246 550.495 71.4246Z" fill="black"/>
<path d="M501.323 79.4196V34.1049H509.849V41.3033H510.321C511.147 38.8645 512.603 36.9469 514.687 35.5505C516.792 34.1344 519.172 33.4264 521.827 33.4264C522.378 33.4264 523.027 33.446 523.774 33.4854C524.541 33.5247 525.141 33.5739 525.574 33.6329V42.0704C525.22 41.972 524.59 41.8639 523.686 41.7459C522.781 41.6082 521.876 41.5393 520.971 41.5393C518.887 41.5393 517.028 41.9819 515.396 42.8669C513.783 43.7323 512.504 44.9419 511.56 46.4956C510.616 48.0297 510.144 49.7802 510.144 51.7469V79.4196H501.323Z" fill="black"/>
<path d="M480.62 60.627V34.1049H489.471V79.4196H480.797V71.5721H480.325C479.283 73.9913 477.611 76.0072 475.31 77.62C473.029 79.2131 470.187 80.0096 466.784 80.0096C463.873 80.0096 461.297 79.3704 459.055 78.092C456.832 76.7939 455.082 74.8763 453.803 72.3392C452.544 69.802 451.915 66.665 451.915 62.9281V34.1049H460.736V61.8661C460.736 64.9539 461.592 67.4124 463.303 69.2415C465.014 71.0706 467.236 71.9851 469.97 71.9851C471.622 71.9851 473.265 71.5721 474.897 70.7461C476.549 69.92 477.916 68.6711 478.998 66.9994C480.099 65.3276 480.64 63.2035 480.62 60.627Z" fill="black"/>
<path d="M398.266 79.4196V19H420.392C424.68 19 428.23 19.708 431.043 21.1241C433.855 22.5205 435.96 24.4185 437.356 26.818C438.752 29.1978 439.451 31.8824 439.451 34.8719C439.451 37.3894 438.988 39.5135 438.064 41.2443C437.14 42.9554 435.901 44.3322 434.347 45.3746C432.813 46.3973 431.121 47.1447 429.273 47.6167V48.2067C431.279 48.3051 433.236 48.9541 435.143 50.1538C437.071 51.3339 438.664 53.0155 439.923 55.1986C441.181 57.3818 441.811 60.0369 441.811 63.1641C441.811 66.252 441.083 69.0251 439.628 71.4836C438.192 73.9224 435.969 75.8597 432.96 77.2955C429.951 78.7115 426.106 79.4196 421.425 79.4196H398.266ZM407.382 71.6016H420.54C424.906 71.6016 428.033 70.7559 429.922 69.0645C431.81 67.373 432.754 65.2587 432.754 62.7216C432.754 60.8138 432.272 59.0634 431.308 57.4703C430.344 55.8772 428.968 54.6086 427.178 53.6646C425.408 52.7205 423.303 52.2485 420.865 52.2485H407.382V71.6016ZM407.382 45.1385H419.596C421.641 45.1385 423.48 44.7452 425.113 43.9585C426.765 43.1718 428.073 42.0704 429.036 40.6543C430.02 39.2185 430.512 37.5271 430.512 35.58C430.512 33.0822 429.636 30.9875 427.886 29.2961C426.136 27.6047 423.451 26.759 419.832 26.759H407.382V45.1385Z" fill="black"/>
<path d="M343.688 79.4196V34.1049H352.214V41.3033H352.686C353.512 38.8645 354.967 36.9469 357.052 35.5505C359.157 34.1344 361.537 33.4264 364.192 33.4264C364.742 33.4264 365.391 33.446 366.139 33.4854C366.906 33.5247 367.506 33.5739 367.938 33.6329V42.0704C367.584 41.972 366.955 41.8639 366.05 41.7459C365.146 41.6082 364.241 41.5393 363.336 41.5393C361.251 41.5393 359.393 41.9819 357.76 42.8669C356.148 43.7323 354.869 44.9419 353.925 46.4956C352.981 48.0297 352.509 49.7802 352.509 51.7469V79.4196H343.688Z" fill="black"/>
<path d="M314.459 80.3341C309.995 80.3341 306.149 79.3802 302.924 77.4725C299.718 75.545 297.24 72.8407 295.49 69.3595C293.759 65.8586 292.893 61.7579 292.893 57.0573C292.893 52.4156 293.759 48.3247 295.49 44.7845C297.24 41.2443 299.679 38.481 302.806 36.4945C305.953 34.5081 309.631 33.5149 313.84 33.5149C316.396 33.5149 318.875 33.9377 321.274 34.7834C323.674 35.6292 325.827 36.9567 327.735 38.7662C329.643 40.5756 331.147 42.9259 332.249 45.8171C333.35 48.6886 333.901 52.1796 333.901 56.2902V59.4174H297.879V52.809H325.257C325.257 50.4882 324.785 48.4329 323.841 46.6431C322.897 44.8337 321.569 43.4078 319.858 42.3654C318.167 41.323 316.18 40.8018 313.899 40.8018C311.42 40.8018 309.257 41.4115 307.408 42.6309C305.579 43.8306 304.163 45.4041 303.16 47.3512C302.177 49.2786 301.685 51.3732 301.685 53.6351V58.7979C301.685 61.8267 302.216 64.4032 303.278 66.5273C304.36 68.6514 305.864 70.274 307.792 71.3951C309.719 72.4965 311.971 73.0472 314.548 73.0472C316.219 73.0472 317.744 72.8112 319.12 72.3392C320.497 71.8475 321.687 71.1198 322.69 70.156C323.693 69.1923 324.46 68.0024 324.991 66.5863L333.34 68.0909C332.672 70.5494 331.472 72.703 329.741 74.5518C328.03 76.3809 325.876 77.8068 323.28 78.8295C320.704 79.8326 317.763 80.3341 314.459 80.3341Z" fill="black"/>
<path d="M243.655 96.4126V34.1049H252.269V41.4508H253.007C253.518 40.5068 254.256 39.4152 255.22 38.1761C256.183 36.9371 257.521 35.8553 259.232 34.9309C260.943 33.9869 263.205 33.5149 266.017 33.5149C269.675 33.5149 272.94 34.4392 275.812 36.288C278.683 38.1368 280.935 40.8018 282.568 44.283C284.22 47.7642 285.046 51.9535 285.046 56.8507C285.046 61.748 284.23 65.9471 282.597 69.448C280.965 72.9292 278.723 75.6139 275.871 77.502C273.019 79.3704 269.764 80.3046 266.106 80.3046C263.352 80.3046 261.1 79.8424 259.35 78.918C257.619 77.9937 256.262 76.9119 255.279 75.6729C254.295 74.4338 253.538 73.3324 253.007 72.3687H252.476V96.4126H243.655ZM252.299 56.7622C252.299 59.9484 252.761 62.7413 253.686 65.1407C254.61 67.5402 255.947 69.4185 257.698 70.7756C259.448 72.113 261.592 72.7817 264.129 72.7817C266.765 72.7817 268.967 72.0835 270.738 70.6871C272.508 69.271 273.845 67.3534 274.75 64.9342C275.674 62.5151 276.136 59.7911 276.136 56.7622C276.136 53.7727 275.684 51.0881 274.779 48.7083C273.894 46.3285 272.557 44.4502 270.767 43.0734C268.997 41.6967 266.784 41.0083 264.129 41.0083C261.572 41.0083 259.409 41.6672 257.639 42.9849C255.888 44.3027 254.561 46.1416 253.656 48.5017C252.751 50.8619 252.299 53.6154 252.299 56.7622Z" fill="black"/>
<path d="M222.952 60.627V34.1049H231.803V79.4196H223.129V71.5721H222.657C221.615 73.9913 219.943 76.0072 217.642 77.62C215.36 79.2131 212.518 80.0096 209.116 80.0096C206.205 80.0096 203.628 79.3704 201.386 78.092C199.164 76.7939 197.413 74.8763 196.135 72.3392C194.876 69.802 194.247 66.665 194.247 62.9281V34.1049H203.068V61.8661C203.068 64.9539 203.923 67.4124 205.635 69.2415C207.346 71.0706 209.568 71.9851 212.302 71.9851C213.954 71.9851 215.596 71.5721 217.229 70.7461C218.881 69.92 220.248 68.6711 221.329 66.9994C222.431 65.3276 222.972 63.2035 222.952 60.627Z" fill="black"/>
<path d="M154.56 79.4196H135V19H155.179C161.099 19 166.183 20.2096 170.432 22.6287C174.68 25.0282 177.935 28.4799 180.197 32.9838C182.478 37.4681 183.619 42.8472 183.619 49.1213C183.619 55.415 182.468 60.8236 180.167 65.3472C177.886 69.8708 174.582 73.3521 170.255 75.7909C165.928 78.21 160.696 79.4196 154.56 79.4196ZM144.116 71.4541H154.058C158.66 71.4541 162.486 70.5887 165.534 68.858C168.583 67.1075 170.864 64.5802 172.379 61.276C173.893 57.9521 174.65 53.9006 174.65 49.1213C174.65 44.3813 173.893 40.3593 172.379 37.0551C170.884 33.7509 168.652 31.2432 165.682 29.5321C162.712 27.821 159.024 26.9655 154.619 26.9655H144.116V71.4541Z" fill="black"/>
</svg>
