<svg width="115" height="114" viewBox="0 0 115 114" fill="none" xmlns="http://www.w3.org/2000/svg">
<rect x="0.654541" width="114" height="114" fill="#FFF6F1"/>
<path d="M57.4821 72.0995C69.5823 72.0995 79.3915 62.2903 79.3915 50.1901C79.3915 38.0899 69.5823 28.2808 57.4821 28.2808C45.3819 28.2808 35.5728 38.0899 35.5728 50.1901C35.5728 62.2903 45.3819 72.0995 57.4821 72.0995Z" stroke="#FF7629" stroke-width="3" stroke-linecap="round" stroke-linejoin="round"/>
<path d="M39.7122 63.0059L30.9819 77.8991L41.0757 75.9736L44.326 85.7194L52.6284 71.5582" stroke="#FF7629" stroke-width="3" stroke-linecap="round" stroke-linejoin="round"/>
<path d="M75.2517 63.0059L83.9819 77.8991L73.8881 75.9736L70.6378 85.7194L62.3354 71.5582" stroke="#FF7629" stroke-width="3" stroke-linecap="round" stroke-linejoin="round"/>
<path d="M56.3632 39.9038C56.4676 39.6966 56.6275 39.5225 56.825 39.4009C57.0225 39.2793 57.2499 39.2148 57.4819 39.2148C57.7139 39.2148 57.9413 39.2793 58.1388 39.4009C58.3363 39.5225 58.4962 39.6966 58.6006 39.9038L61.2013 45.1466C61.2907 45.3267 61.4226 45.4823 61.5856 45.6C61.7486 45.7176 61.9379 45.7938 62.137 45.8219L67.9726 46.6647C68.2002 46.6976 68.4144 46.7928 68.5913 46.9397C68.7682 47.0866 68.9011 47.2796 68.9753 47.4973C69.0475 47.7146 69.0566 47.9479 69.0013 48.1702C68.9461 48.3924 68.8289 48.5944 68.6634 48.7526L64.4413 52.8612C64.2989 52.9989 64.1921 53.1692 64.1302 53.3573C64.0682 53.5455 64.0529 53.7459 64.0856 53.9412L65.0857 59.733C65.1241 59.9597 65.0975 60.1925 65.009 60.4046C64.9205 60.6168 64.7737 60.7995 64.5857 60.9316C64.397 61.0671 64.1742 61.1472 63.9425 61.1632C63.7108 61.1791 63.4792 61.1302 63.2737 61.0218L58.0644 58.3051C57.885 58.2098 57.685 58.16 57.4819 58.16C57.2788 58.16 57.0788 58.2098 56.8994 58.3051L51.703 61.0218C51.4975 61.1302 51.2659 61.1791 51.0342 61.1632C50.8024 61.1472 50.5797 61.0671 50.391 60.9316C50.2029 60.7995 50.0562 60.6168 49.9677 60.4046C49.8792 60.1925 49.8526 59.9597 49.8909 59.733L50.891 53.9412C50.9237 53.7459 50.9084 53.5455 50.8465 53.3573C50.7845 53.1692 50.6777 52.9989 50.5353 52.8612L46.3004 48.7526C46.1348 48.5944 46.0176 48.3924 45.9624 48.1702C45.9072 47.9479 45.9163 47.7146 45.9885 47.4973C46.0626 47.2796 46.1955 47.0866 46.3725 46.9397C46.5494 46.7928 46.7635 46.6976 46.9912 46.6647L52.8268 45.8219C53.0259 45.7938 53.2151 45.7176 53.3782 45.6C53.5412 45.4823 53.6731 45.3267 53.7624 45.1466L56.3632 39.9038Z" stroke="#FF7629" stroke-width="3" stroke-linecap="round" stroke-linejoin="round"/>
</svg>
