<svg width="114" height="114" viewBox="0 0 114 114" fill="none" xmlns="http://www.w3.org/2000/svg">
<rect width="114" height="114" fill="#FFF6F1"/>
<path d="M68.8648 31.1455C72.3423 38.1028 61.8421 40.5438 67.0486 47.4915" stroke="#FF7629" stroke-width="3" stroke-linecap="round" stroke-linejoin="round"/>
<path d="M57.9676 31.1455C61.445 38.1028 50.9449 40.5438 56.1514 47.4915" stroke="#FF7629" stroke-width="3" stroke-linecap="round" stroke-linejoin="round"/>
<path d="M47.0704 31.1455C50.5478 38.1028 40.0476 40.5438 45.2541 47.4915" stroke="#FF7629" stroke-width="3" stroke-linecap="round" stroke-linejoin="round"/>
<path d="M30.3439 60.2051C30.1844 60.2055 30.0277 60.2479 29.8897 60.3281C29.7518 60.4083 29.6374 60.5234 29.5581 60.6619C29.4788 60.8004 29.4373 60.9573 29.438 61.1169C29.4386 61.2765 29.4813 61.433 29.5618 61.5709C34.066 69.2838 43.6605 74.7349 56.6792 74.7349C69.6978 74.7349 79.2948 69.2838 83.8014 61.5709C83.8819 61.4329 83.9246 61.2761 83.9252 61.1163C83.9257 60.9565 83.8841 60.7994 83.8045 60.6608C83.7249 60.5223 83.6102 60.4072 83.4719 60.3272C83.3336 60.2471 83.1766 60.205 83.0168 60.2051H30.3439Z" stroke="#FF7629" stroke-width="3" stroke-linecap="round" stroke-linejoin="round"/>
<path d="M43.9656 81.9998C43.9656 77.9871 49.6588 74.7349 56.6791 74.7349C63.6994 74.7349 69.3927 77.9871 69.3927 81.9998H43.9656Z" stroke="#FF7629" stroke-width="3" stroke-linecap="round" stroke-linejoin="round"/>
</svg>
