<svg width="114" height="114" viewBox="0 0 114 114" fill="none" xmlns="http://www.w3.org/2000/svg">
<rect width="114" height="114" fill="#FFF6F1"/>
<path d="M56.8476 79.932L34.0438 56.6339C32.0452 54.6965 30.7195 52.17 30.261 49.4245C29.8025 46.6789 30.2353 43.8588 31.4959 41.377V41.377C32.4823 39.4949 33.8948 37.8692 35.6207 36.6295C37.3467 35.3899 39.3384 34.5706 41.437 34.237C43.5357 33.9034 45.6832 34.0647 47.7085 34.708C49.7338 35.3514 51.5807 36.4589 53.1022 37.9425L56.8272 41.5911L60.5523 37.9425C62.0737 36.4589 63.9207 35.3514 65.9459 34.708C67.9712 34.0647 70.1188 33.9034 72.2174 34.237C74.316 34.5706 76.3077 35.3899 78.0337 36.6295C79.7596 37.8692 81.1721 39.4949 82.1585 41.377C83.4192 43.8588 83.8519 46.6789 83.3934 49.4245C82.9349 52.17 81.6093 54.6965 79.6106 56.6339L56.8476 79.932Z" stroke="#FF7629" stroke-width="3" stroke-linecap="round" stroke-linejoin="round"/>
</svg>
