<svg width="115" height="114" viewBox="0 0 115 114" fill="none" xmlns="http://www.w3.org/2000/svg">
<rect x="0.654541" width="114" height="114" fill="#FFF6F1"/>
<path d="M37.8467 58.7949H77.4627V79.1413C77.4627 80.411 76.9568 81.6287 76.0563 82.5265C75.1557 83.4243 73.9343 83.9287 72.6608 83.9287H42.6486C41.3751 83.9287 40.1537 83.4243 39.2531 82.5265C38.3526 81.6287 37.8467 80.411 37.8467 79.1413V58.7949Z" stroke="#FF7629" stroke-width="3" stroke-linecap="round" stroke-linejoin="round"/>
<path d="M77.4624 62.3857H84.6653" stroke="#FF7629" stroke-width="3" stroke-linecap="round" stroke-linejoin="round"/>
<path d="M37.8465 62.3857H30.6436" stroke="#FF7629" stroke-width="3" stroke-linecap="round" stroke-linejoin="round"/>
<path d="M37.8467 58.7951C37.8467 50.8624 46.7159 48.0234 57.6547 48.0234C68.5935 48.0234 77.4627 50.8624 77.4627 58.7951" stroke="#FF7629" stroke-width="3" stroke-linecap="round" stroke-linejoin="round"/>
<path d="M63.0569 73.1572H66.6583" stroke="#FF7629" stroke-width="3" stroke-linecap="round" stroke-linejoin="round"/>
<path d="M57.6548 40.8423V48.0234" stroke="#FF7629" stroke-width="3" stroke-linecap="round" stroke-linejoin="round"/>
<path d="M73.8611 30.0708C77.3113 36.9479 68.6966 35.7702 73.8611 42.6377" stroke="#FF7629" stroke-width="3" stroke-linecap="round" stroke-linejoin="round"/>
<path d="M41.3423 30.0708C44.7925 36.9479 36.1778 35.7702 41.3423 42.6377" stroke="#FF7629" stroke-width="3" stroke-linecap="round" stroke-linejoin="round"/>
</svg>
