<svg width="72" height="72" viewBox="0 0 72 72" fill="none" xmlns="http://www.w3.org/2000/svg">
<rect width="72" height="72" fill="#FF7629"/>
<path d="M52.4529 27.7737V44.2265C52.4529 45.3174 52.0196 46.3636 51.2482 47.1349C50.4768 47.9063 49.4306 48.3397 48.3397 48.3397H23.6606C22.5697 48.3397 21.5235 47.9063 20.7521 47.1349C19.9807 46.3636 19.5474 45.3174 19.5474 44.2265V27.7737" stroke="white" stroke-width="2.5" stroke-linecap="round" stroke-linejoin="round"/>
<path d="M52.4529 27.7736C52.4529 26.6827 52.0196 25.6365 51.2482 24.8651C50.4768 24.0938 49.4306 23.6604 48.3397 23.6604H23.6606C22.5697 23.6604 21.5235 24.0938 20.7521 24.8651C19.9807 25.6365 19.5474 26.6827 19.5474 27.7736L33.8202 36.6855C34.4739 37.0941 35.2293 37.3107 36.0002 37.3107C36.7711 37.3107 37.5264 37.0941 38.1802 36.6855L52.4529 27.7736Z" stroke="white" stroke-width="2.5" stroke-linecap="round" stroke-linejoin="round"/>
</svg>
