<svg width="72" height="72" viewBox="0 0 72 72" fill="none" xmlns="http://www.w3.org/2000/svg">
<rect width="72" height="72" fill="#FF7629"/>
<path d="M40.5662 51.5894L40.5842 51.5999C42.1796 52.6156 44.0737 53.0568 45.9537 52.8506C47.8337 52.6444 49.5871 51.8032 50.9244 50.4658L52.087 49.3032C52.6063 48.7833 52.8979 48.0786 52.8979 47.3438C52.8979 46.609 52.6063 45.9042 52.087 45.3843L47.1888 40.4891C46.6689 39.9698 45.9641 39.6782 45.2293 39.6782C44.4945 39.6782 43.7898 39.9698 43.2699 40.4891C43.0128 40.7465 42.7075 40.9507 42.3714 41.0901C42.0353 41.2294 41.675 41.3011 41.3112 41.3011C40.9474 41.3011 40.5871 41.2294 40.251 41.0901C39.9149 40.9507 39.6096 40.7465 39.3525 40.4891L31.5147 32.6498C30.9955 32.1299 30.7038 31.4251 30.7038 30.6903C30.7038 29.9556 30.9955 29.2508 31.5147 28.7309C31.7721 28.4738 31.9763 28.1685 32.1157 27.8324C32.255 27.4963 32.3267 27.136 32.3267 26.7722C32.3267 26.4084 32.255 26.0481 32.1157 25.712C31.9763 25.3759 31.7721 25.0706 31.5147 24.8135L26.618 19.9108C26.0981 19.3915 25.3933 19.0999 24.6585 19.0999C23.9237 19.0999 23.219 19.3915 22.6991 19.9108L21.5365 21.0734C20.1994 22.4108 19.3582 24.1641 19.1517 26.0439C18.9453 27.9238 19.3859 29.8179 20.4009 31.4136L20.4129 31.4316C25.7804 39.3773 32.6217 46.2201 40.5662 51.5894V51.5894Z" stroke="white" stroke-width="2.5" stroke-linecap="round" stroke-linejoin="round"/>
</svg>
